# xmcd
#
# Track frame offsets:
#	150
#	33959
#	64842
#	92082
#	117777
#	145892
#	175135
#	200249
#	229118
#	260874
#	293118
#	326772
#
# Disc length: 4715 seconds
#
# Revision: 0
# Processed by: cddbd v1.5.2PL0 Copyright (c) Steve Scherf et al.
# Submitted via: EasyCDDAExtractor 11.6.0.1
#
DISCID=b712690c
DTITLE=Various Artist - Remix Club Connection [CD3)
DYEAR=2008
DGENRE=Club
TTITLE0=Eric Prydz - Pjanoo (Club Mix)
TTITLE1=Alp Vs Outwork - Fiesta Elektronika (Paolo Aliberti Reprise Mix)
TTITLE2=Nicola Fasano Vs Pat-Rick - 75 Brazil Street (Original Mix)
TTITLE3=Ian Oliver Feat. Shantel - Bucovina (Ian Oliver's Clubovina Mix)
TTITLE4=Kut And Swel - Stone Fox Chase (Original Club Mix)
TTITLE5=Sandy Vee - Bleep (Original Mix)
TTITLE6=Stfu - Thriller (Mouth 2 Mouth Remix)
TTITLE7=Atrax Feat. Andy - Hard To Love (Get Far Remix)
TTITLE8=Jean Claude Ades And Vincent Thomas - Shingaling (Original Mix)
TTITLE9=Dj Nick Corline - Mundo (Original Dj Nick)
TTITLE10=Relight Orchestra And Pns - Rumba De Amor (Lmr Dub)
TTITLE11=Noel Sinner - Pull Over (Dabruck and Klein Remix)
EXTD=
EXTT0=
EXTT1=
EXTT2=
EXTT3=
EXTT4=
EXTT5=
EXTT6=
EXTT7=
EXTT8=
EXTT9=
EXTT10=
EXTT11=
PLAYORDER=
